{
  "asset": {
    "generator": "ArenaPro Web VCode Exporter",
    "version": "2.0"
  },
  "extensionsUsed": [
    "KHR_materials_unlit"
  ],
  "accessors": [
    {
      "name": "positions_0",
      "componentType": 5126,
      "count": 1024,
      "type": "VEC3",
      "bufferView": 0,
      "byteOffset": 0,
      "min": [
        0,
        0,
        0
      ],
      "max": [
        132,
        99,
        3
      ]
    },
    {
      "name": "texcoords_0",
      "componentType": 5126,
      "count": 1024,
      "type": "VEC2",
      "bufferView": 1,
      "byteOffset": 0,
      "min": [
        0.007462686567164179,
        0.010752688172043012
      ],
      "max": [
        0.9925373134328358,
        0.989247311827957
      ]
    },
    {
      "name": "indices_0",
      "componentType": 5123,
      "count": 1536,
      "type": "SCALAR",
      "bufferView": 2,
      "byteOffset": 0,
      "min": [
        0
      ],
      "max": [
        1023
      ]
    },
    {
      "name": "positions_1",
      "componentType": 5126,
      "count": 968,
      "type": "VEC3",
      "bufferView": 3,
      "byteOffset": 0,
      "min": [
        0,
        0,
        0
      ],
      "max": [
        128,
        99,
        2
      ]
    },
    {
      "name": "texcoords_1",
      "componentType": 5126,
      "count": 968,
      "type": "VEC2",
      "bufferView": 4,
      "byteOffset": 0,
      "min": [
        0.007462686567164179,
        0.13978494623655913
      ],
      "max": [
        0.9925373134328358,
        0.8924731182795699
      ]
    },
    {
      "name": "indices_1",
      "componentType": 5123,
      "count": 1452,
      "type": "SCALAR",
      "bufferView": 5,
      "byteOffset": 0,
      "min": [
        0
      ],
      "max": [
        967
      ]
    },
    {
      "name": "positions_2",
      "componentType": 5126,
      "count": 336,
      "type": "VEC3",
      "bufferView": 6,
      "byteOffset": 0,
      "min": [
        0,
        0,
        0
      ],
      "max": [
        132,
        24,
        3
      ]
    },
    {
      "name": "texcoords_2",
      "componentType": 5126,
      "count": 336,
      "type": "VEC2",
      "bufferView": 7,
      "byteOffset": 0,
      "min": [
        0.007462686567164179,
        0.053763440860215055
      ],
      "max": [
        0.9925373134328358,
        0.9247311827956989
      ]
    },
    {
      "name": "indices_2",
      "componentType": 5123,
      "count": 504,
      "type": "SCALAR",
      "bufferView": 8,
      "byteOffset": 0,
      "min": [
        0
      ],
      "max": [
        335
      ]
    },
    {
      "name": "positions_3",
      "componentType": 5126,
      "count": 312,
      "type": "VEC3",
      "bufferView": 9,
      "byteOffset": 0,
      "min": [
        0,
        0,
        0
      ],
      "max": [
        128,
        24,
        2
      ]
    },
    {
      "name": "texcoords_3",
      "componentType": 5126,
      "count": 312,
      "type": "VEC2",
      "bufferView": 10,
      "byteOffset": 0,
      "min": [
        0.007462686567164179,
        0.1827956989247312
      ],
      "max": [
        0.9925373134328358,
        0.9247311827956989
      ]
    },
    {
      "name": "indices_3",
      "componentType": 5123,
      "count": 468,
      "type": "SCALAR",
      "bufferView": 11,
      "byteOffset": 0,
      "min": [
        0
      ],
      "max": [
        311
      ]
    },
    {
      "name": "positions_4",
      "componentType": 5126,
      "count": 344,
      "type": "VEC3",
      "bufferView": 12,
      "byteOffset": 0,
      "min": [
        0,
        0,
        0
      ],
      "max": [
        132,
        31,
        3
      ]
    },
    {
      "name": "texcoords_4",
      "componentType": 5126,
      "count": 344,
      "type": "VEC2",
      "bufferView": 13,
      "byteOffset": 0,
      "min": [
        0.007462686567164179,
        0.0967741935483871
      ],
      "max": [
        0.9925373134328358,
        0.989247311827957
      ]
    },
    {
      "name": "indices_4",
      "componentType": 5123,
      "count": 516,
      "type": "SCALAR",
      "bufferView": 14,
      "byteOffset": 0,
      "min": [
        0
      ],
      "max": [
        343
      ]
    },
    {
      "name": "positions_5",
      "componentType": 5126,
      "count": 312,
      "type": "VEC3",
      "bufferView": 15,
      "byteOffset": 0,
      "min": [
        0,
        0,
        0
      ],
      "max": [
        128,
        24,
        2
      ]
    },
    {
      "name": "texcoords_5",
      "componentType": 5126,
      "count": 312,
      "type": "VEC2",
      "bufferView": 16,
      "byteOffset": 0,
      "min": [
        0.007462686567164179,
        0.22580645161290322
      ],
      "max": [
        0.9925373134328358,
        0.9354838709677419
      ]
    },
    {
      "name": "indices_5",
      "componentType": 5123,
      "count": 468,
      "type": "SCALAR",
      "bufferView": 17,
      "byteOffset": 0,
      "min": [
        0
      ],
      "max": [
        311
      ]
    }
  ],
  "bufferViews": [
    {
      "name": "bufferView_positions_0",
      "buffer": 0,
      "byteLength": 12288,
      "byteOffset": 0,
      "byteStride": 12,
      "target": 34962
    },
    {
      "name": "bufferView_texcoords_0",
      "buffer": 0,
      "byteLength": 8192,
      "byteOffset": 12288,
      "byteStride": 8,
      "target": 34962
    },
    {
      "name": "bufferView_indices_0",
      "buffer": 0,
      "byteLength": 3072,
      "byteOffset": 20480,
      "target": 34963
    },
    {
      "name": "bufferView_positions_1",
      "buffer": 0,
      "byteLength": 11616,
      "byteOffset": 23552,
      "byteStride": 12,
      "target": 34962
    },
    {
      "name": "bufferView_texcoords_1",
      "buffer": 0,
      "byteLength": 7744,
      "byteOffset": 35168,
      "byteStride": 8,
      "target": 34962
    },
    {
      "name": "bufferView_indices_1",
      "buffer": 0,
      "byteLength": 2904,
      "byteOffset": 42912,
      "target": 34963
    },
    {
      "name": "bufferView_positions_2",
      "buffer": 0,
      "byteLength": 4032,
      "byteOffset": 45816,
      "byteStride": 12,
      "target": 34962
    },
    {
      "name": "bufferView_texcoords_2",
      "buffer": 0,
      "byteLength": 2688,
      "byteOffset": 49848,
      "byteStride": 8,
      "target": 34962
    },
    {
      "name": "bufferView_indices_2",
      "buffer": 0,
      "byteLength": 1008,
      "byteOffset": 52536,
      "target": 34963
    },
    {
      "name": "bufferView_positions_3",
      "buffer": 0,
      "byteLength": 3744,
      "byteOffset": 53544,
      "byteStride": 12,
      "target": 34962
    },
    {
      "name": "bufferView_texcoords_3",
      "buffer": 0,
      "byteLength": 2496,
      "byteOffset": 57288,
      "byteStride": 8,
      "target": 34962
    },
    {
      "name": "bufferView_indices_3",
      "buffer": 0,
      "byteLength": 936,
      "byteOffset": 59784,
      "target": 34963
    },
    {
      "name": "bufferView_positions_4",
      "buffer": 0,
      "byteLength": 4128,
      "byteOffset": 60720,
      "byteStride": 12,
      "target": 34962
    },
    {
      "name": "bufferView_texcoords_4",
      "buffer": 0,
      "byteLength": 2752,
      "byteOffset": 64848,
      "byteStride": 8,
      "target": 34962
    },
    {
      "name": "bufferView_indices_4",
      "buffer": 0,
      "byteLength": 1032,
      "byteOffset": 67600,
      "target": 34963
    },
    {
      "name": "bufferView_positions_5",
      "buffer": 0,
      "byteLength": 3744,
      "byteOffset": 68632,
      "byteStride": 12,
      "target": 34962
    },
    {
      "name": "bufferView_texcoords_5",
      "buffer": 0,
      "byteLength": 2496,
      "byteOffset": 72376,
      "byteStride": 8,
      "target": 34962
    },
    {
      "name": "bufferView_indices_5",
      "buffer": 0,
      "byteLength": 936,
      "byteOffset": 74872,
      "target": 34963
    },
    {
      "name": "bufferView_image",
      "buffer": 0,
      "byteLength": 1851,
      "byteOffset": 75808
    },
    {
      "name": "bufferView_emissive_image",
      "buffer": 0,
      "byteLength": 697,
      "byteOffset": 77659
    }
  ],
  "buffers": [
    {
      "name": "E2nfdK5l3TF8uy2r8AHfj-NiRlFtdZWlPY30Oew08Ig",
      "byteLength": 78356,
      "uri": "data:application/octet-stream;base64,"
    }
  ],
  "images": [
    {
      "name": "image",
      "mimeType": "image/png",
      "bufferView": 18
    },
    {
      "name": "emissive image",
      "mimeType": "image/png",
      "bufferView": 19
    }
  ],
  "materials": [
    {
      "name": "material",
      "pbrMetallicRoughness": {
        "baseColorTexture": {
          "index": 0
        },
        "baseColorFactor": [
          1,
          1,
          1,
          1
        ],
        "metallicFactor": 0,
        "roughnessFactor": 1
      },
      "emissiveTexture": {
        "index": 1
      },
      "emissiveFactor": [
        0,
        0,
        0
      ],
      "alphaMode": "OPAQUE",
      "doubleSided": true,
      "extensions": {
        "KHR_materials_unlit": {}
      }
    }
  ],
  "meshes": [
    {
      "name": "mesh_0",
      "primitives": [
        {
          "attributes": {
            "POSITION": 0,
            "TEXCOORD_0": 1
          },
          "indices": 2,
          "material": 0,
          "mode": 4
        }
      ]
    },
    {
      "name": "mesh_1",
      "primitives": [
        {
          "attributes": {
            "POSITION": 3,
            "TEXCOORD_0": 4
          },
          "indices": 5,
          "material": 0,
          "mode": 4
        }
      ]
    },
    {
      "name": "mesh_2",
      "primitives": [
        {
          "attributes": {
            "POSITION": 6,
            "TEXCOORD_0": 7
          },
          "indices": 8,
          "material": 0,
          "mode": 4
        }
      ]
    },
    {
      "name": "mesh_3",
      "primitives": [
        {
          "attributes": {
            "POSITION": 9,
            "TEXCOORD_0": 10
          },
          "indices": 11,
          "material": 0,
          "mode": 4
        }
      ]
    },
    {
      "name": "mesh_4",
      "primitives": [
        {
          "attributes": {
            "POSITION": 12,
            "TEXCOORD_0": 13
          },
          "indices": 14,
          "material": 0,
          "mode": 4
        }
      ]
    },
    {
      "name": "mesh_5",
      "primitives": [
        {
          "attributes": {
            "POSITION": 15,
            "TEXCOORD_0": 16
          },
          "indices": 17,
          "material": 0,
          "mode": 4
        }
      ]
    }
  ],
  "nodes": [
    {
      "name": "Root",
      "rotation": [
        0,
        0,
        0,
        1
      ],
      "scale": [
        1,
        1,
        1
      ],
      "translation": [
        0,
        0,
        0
      ],
      "children": [
        1,
        2
      ]
    },
    {
      "name": "Root",
      "rotation": [
        0,
        0,
        0,
        1
      ],
      "scale": [
        1,
        1,
        1
      ],
      "translation": [
        0,
        0,
        0
      ]
    },
    {
      "name": "Root",
      "rotation": [
        0,
        0,
        0,
        1
      ],
      "scale": [
        1,
        1,
        1
      ],
      "translation": [
        0,
        0,
        0
      ],
      "children": [
        3,
        6,
        9
      ]
    },
    {
      "name": "Group",
      "rotation": [
        0,
        0,
        0,
        1
      ],
      "scale": [
        1,
        1,
        1
      ],
      "translation": [
        -270,
        -296,
        77.46757507324219
      ],
      "children": [
        4,
        5
      ]
    },
    {
      "name": "Object",
      "mesh": 0,
      "rotation": [
        0,
        0,
        0,
        1
      ],
      "scale": [
        1,
        1,
        1
      ],
      "translation": [
        198,
        148,
        -38.99999237060547
      ]
    },
    {
      "name": "Object-1",
      "mesh": 1,
      "rotation": [
        0,
        0,
        0,
        1
      ],
      "scale": [
        1,
        1,
        1
      ],
      "translation": [
        70,
        148,
        -38.99999237060547
      ]
    },
    {
      "name": "Group-1",
      "rotation": [
        0,
        0,
        0,
        1
      ],
      "scale": [
        1,
        1,
        1
      ],
      "translation": [
        -270,
        -304.6557312011719,
        78.73640441894531
      ],
      "children": [
        7,
        8
      ]
    },
    {
      "name": "Object-2",
      "mesh": 2,
      "rotation": [
        0.3700547516345978,
        0,
        0,
        0.9290099740028381
      ],
      "scale": [
        1,
        1,
        1
      ],
      "translation": [
        198,
        255.25991821289062,
        -39.96758270263672
      ]
    },
    {
      "name": "Object-3",
      "mesh": 3,
      "rotation": [
        0.3700547516345978,
        0,
        0,
        0.9290099740028381
      ],
      "scale": [
        1,
        1,
        1
      ],
      "translation": [
        70,
        255.25990295410156,
        -39.96758270263672
      ]
    },
    {
      "name": "Group-2",
      "rotation": [
        0,
        0,
        0,
        1
      ],
      "scale": [
        1,
        1,
        1
      ],
      "translation": [
        -270,
        -326.1794738769531,
        78.73640441894531
      ],
      "children": [
        10,
        11
      ]
    },
    {
      "name": "Object-4",
      "mesh": 4,
      "rotation": [
        0.7059755921363831,
        0,
        0,
        0.7082361578941345
      ],
      "scale": [
        1,
        1,
        1
      ],
      "translation": [
        198,
        293.78753662109375,
        -24.05270767211914
      ]
    },
    {
      "name": "Object-5",
      "mesh": 5,
      "rotation": [
        0.7059755921363831,
        0,
        0,
        0.7082361578941345
      ],
      "scale": [
        1,
        1,
        1
      ],
      "translation": [
        70,
        293.78753662109375,
        -24.05270767211914
      ]
    }
  ],
  "samplers": [
    {
      "wrapS": 33071,
      "wrapT": 33071,
      "magFilter": 9728,
      "minFilter": 9728
    }
  ],
  "scene": 0,
  "scenes": [
    {
      "nodes": [
        0
      ]
    }
  ],
  "textures": [
    {
      "name": "texture",
      "sampler": 0,
      "source": 0
    },
    {
      "name": "emissive texture",
      "sampler": 0,
      "source": 1
    }
  ]
}