{
  "asset": {
    "generator": "ArenaPro Web VCode Exporter",
    "version": "2.0"
  },
  "extensionsUsed": [
    "KHR_materials_unlit"
  ],
  "accessors": [
    {
      "name": "positions_0",
      "componentType": 5126,
      "count": 120,
      "type": "VEC3",
      "bufferView": 0,
      "byteOffset": 0,
      "min": [
        0,
        0,
        0
      ],
      "max": [
        40,
        1,
        40
      ]
    },
    {
      "name": "texcoords_0",
      "componentType": 5126,
      "count": 120,
      "type": "VEC2",
      "bufferView": 1,
      "byteOffset": 0,
      "min": [
        0.3333333333333333,
        0.3333333333333333
      ],
      "max": [
        0.6666666666666666,
        0.6666666666666666
      ]
    },
    {
      "name": "indices_0",
      "componentType": 5121,
      "count": 180,
      "type": "SCALAR",
      "bufferView": 2,
      "byteOffset": 0,
      "min": [
        0
      ],
      "max": [
        119
      ]
    },
    {
      "name": "positions_1",
      "componentType": 5126,
      "count": 120,
      "type": "VEC3",
      "bufferView": 3,
      "byteOffset": 0,
      "min": [
        0,
        0,
        0
      ],
      "max": [
        40,
        1,
        40
      ]
    },
    {
      "name": "texcoords_1",
      "componentType": 5126,
      "count": 120,
      "type": "VEC2",
      "bufferView": 4,
      "byteOffset": 0,
      "min": [
        0.3333333333333333,
        0.3333333333333333
      ],
      "max": [
        0.6666666666666666,
        0.6666666666666666
      ]
    },
    {
      "name": "indices_1",
      "componentType": 5121,
      "count": 180,
      "type": "SCALAR",
      "bufferView": 5,
      "byteOffset": 0,
      "min": [
        0
      ],
      "max": [
        119
      ]
    },
    {
      "name": "positions_2",
      "componentType": 5126,
      "count": 120,
      "type": "VEC3",
      "bufferView": 6,
      "byteOffset": 0,
      "min": [
        0,
        0,
        0
      ],
      "max": [
        40,
        1,
        40
      ]
    },
    {
      "name": "texcoords_2",
      "componentType": 5126,
      "count": 120,
      "type": "VEC2",
      "bufferView": 7,
      "byteOffset": 0,
      "min": [
        0.3333333333333333,
        0.3333333333333333
      ],
      "max": [
        0.6666666666666666,
        0.6666666666666666
      ]
    },
    {
      "name": "indices_2",
      "componentType": 5121,
      "count": 180,
      "type": "SCALAR",
      "bufferView": 8,
      "byteOffset": 0,
      "min": [
        0
      ],
      "max": [
        119
      ]
    },
    {
      "name": "positions_3",
      "componentType": 5126,
      "count": 904,
      "type": "VEC3",
      "bufferView": 9,
      "byteOffset": 0,
      "min": [
        0,
        0,
        0
      ],
      "max": [
        30,
        66,
        1
      ]
    },
    {
      "name": "texcoords_3",
      "componentType": 5126,
      "count": 904,
      "type": "VEC2",
      "bufferView": 10,
      "byteOffset": 0,
      "min": [
        0.3333333333333333,
        0.3333333333333333
      ],
      "max": [
        0.6666666666666666,
        0.6666666666666666
      ]
    },
    {
      "name": "indices_3",
      "componentType": 5123,
      "count": 1356,
      "type": "SCALAR",
      "bufferView": 11,
      "byteOffset": 0,
      "min": [
        0
      ],
      "max": [
        903
      ]
    }
  ],
  "bufferViews": [
    {
      "name": "bufferView_positions_0",
      "buffer": 0,
      "byteLength": 1440,
      "byteOffset": 0,
      "byteStride": 12,
      "target": 34962
    },
    {
      "name": "bufferView_texcoords_0",
      "buffer": 0,
      "byteLength": 960,
      "byteOffset": 1440,
      "byteStride": 8,
      "target": 34962
    },
    {
      "name": "bufferView_indices_0",
      "buffer": 0,
      "byteLength": 180,
      "byteOffset": 2400,
      "target": 34963
    },
    {
      "name": "bufferView_positions_1",
      "buffer": 0,
      "byteLength": 1440,
      "byteOffset": 2580,
      "byteStride": 12,
      "target": 34962
    },
    {
      "name": "bufferView_texcoords_1",
      "buffer": 0,
      "byteLength": 960,
      "byteOffset": 4020,
      "byteStride": 8,
      "target": 34962
    },
    {
      "name": "bufferView_indices_1",
      "buffer": 0,
      "byteLength": 180,
      "byteOffset": 4980,
      "target": 34963
    },
    {
      "name": "bufferView_positions_2",
      "buffer": 0,
      "byteLength": 1440,
      "byteOffset": 5160,
      "byteStride": 12,
      "target": 34962
    },
    {
      "name": "bufferView_texcoords_2",
      "buffer": 0,
      "byteLength": 960,
      "byteOffset": 6600,
      "byteStride": 8,
      "target": 34962
    },
    {
      "name": "bufferView_indices_2",
      "buffer": 0,
      "byteLength": 180,
      "byteOffset": 7560,
      "target": 34963
    },
    {
      "name": "bufferView_positions_3",
      "buffer": 0,
      "byteLength": 10848,
      "byteOffset": 7740,
      "byteStride": 12,
      "target": 34962
    },
    {
      "name": "bufferView_texcoords_3",
      "buffer": 0,
      "byteLength": 7232,
      "byteOffset": 18588,
      "byteStride": 8,
      "target": 34962
    },
    {
      "name": "bufferView_indices_3",
      "buffer": 0,
      "byteLength": 2712,
      "byteOffset": 25820,
      "target": 34963
    },
    {
      "name": "bufferView_image",
      "buffer": 0,
      "byteLength": 95,
      "byteOffset": 28532
    },
    {
      "name": "bufferView_emissive_image",
      "buffer": 0,
      "byteLength": 95,
      "byteOffset": 28627
    }
  ],
  "buffers": [
    {
      "name": "u-x1oQuan9UL3uJ3Kr8_qksEkvQ9EGhu_xSN6cE1rzg",
      "byteLength": 28724,
      "uri": "data:application/octet-stream;base64,"
    }
  ],
  "images": [
    {
      "name": "image",
      "mimeType": "image/png",
      "bufferView": 12
    },
    {
      "name": "emissive image",
      "mimeType": "image/png",
      "bufferView": 13
    }
  ],
  "materials": [
    {
      "name": "material",
      "pbrMetallicRoughness": {
        "baseColorTexture": {
          "index": 0
        },
        "baseColorFactor": [
          1,
          1,
          1,
          1
        ],
        "metallicFactor": 0,
        "roughnessFactor": 1
      },
      "emissiveTexture": {
        "index": 1
      },
      "emissiveFactor": [
        0,
        0,
        0
      ],
      "alphaMode": "OPAQUE",
      "doubleSided": true,
      "extensions": {
        "KHR_materials_unlit": {}
      }
    }
  ],
  "meshes": [
    {
      "name": "mesh_0",
      "primitives": [
        {
          "attributes": {
            "POSITION": 0,
            "TEXCOORD_0": 1
          },
          "indices": 2,
          "material": 0,
          "mode": 4
        }
      ]
    },
    {
      "name": "mesh_1",
      "primitives": [
        {
          "attributes": {
            "POSITION": 3,
            "TEXCOORD_0": 4
          },
          "indices": 5,
          "material": 0,
          "mode": 4
        }
      ]
    },
    {
      "name": "mesh_2",
      "primitives": [
        {
          "attributes": {
            "POSITION": 6,
            "TEXCOORD_0": 7
          },
          "indices": 8,
          "material": 0,
          "mode": 4
        }
      ]
    },
    {
      "name": "mesh_3",
      "primitives": [
        {
          "attributes": {
            "POSITION": 9,
            "TEXCOORD_0": 10
          },
          "indices": 11,
          "material": 0,
          "mode": 4
        }
      ]
    }
  ],
  "nodes": [
    {
      "name": "Root",
      "rotation": [
        0,
        0,
        0,
        1
      ],
      "scale": [
        1,
        1,
        1
      ],
      "translation": [
        0,
        0,
        0
      ],
      "children": [
        1,
        2
      ]
    },
    {
      "name": "Root",
      "rotation": [
        0,
        0,
        0,
        1
      ],
      "scale": [
        1,
        1,
        1
      ],
      "translation": [
        0,
        0,
        0
      ]
    },
    {
      "name": "Root",
      "rotation": [
        0,
        0,
        0,
        1
      ],
      "scale": [
        1,
        1,
        1
      ],
      "translation": [
        0,
        0,
        0
      ],
      "children": [
        3
      ]
    },
    {
      "name": "Group",
      "rotation": [
        0,
        0,
        0,
        1
      ],
      "scale": [
        1,
        1,
        1
      ],
      "translation": [
        530.796875,
        0,
        63.63810729980469
      ],
      "children": [
        4,
        5,
        6,
        7
      ]
    },
    {
      "name": "Object-1",
      "mesh": 0,
      "rotation": [
        0,
        -0.47923269867897034,
        0,
        0.8776878714561462
      ],
      "scale": [
        1,
        1,
        1
      ],
      "translation": [
        -245.98876953125,
        0,
        -45.63810729980469
      ]
    },
    {
      "name": "Object-1",
      "mesh": 1,
      "rotation": [
        0,
        -0.2268575131893158,
        0,
        0.973927915096283
      ],
      "scale": [
        1,
        1,
        1
      ],
      "translation": [
        -261.10369873046875,
        0,
        -44.779136657714844
      ]
    },
    {
      "name": "Object-1",
      "mesh": 2,
      "rotation": [
        0,
        0,
        0,
        1
      ],
      "scale": [
        1,
        1,
        1
      ],
      "translation": [
        -272,
        0,
        -38
      ]
    },
    {
      "name": "Object-2",
      "mesh": 3,
      "rotation": [
        0,
        0,
        0,
        1
      ],
      "scale": [
        1,
        1,
        1
      ],
      "translation": [
        -267,
        14.355857849121094,
        -18.999996185302734
      ]
    }
  ],
  "samplers": [
    {
      "wrapS": 33071,
      "wrapT": 33071,
      "magFilter": 9728,
      "minFilter": 9728
    }
  ],
  "scene": 0,
  "scenes": [
    {
      "nodes": [
        0
      ]
    }
  ],
  "textures": [
    {
      "name": "texture",
      "sampler": 0,
      "source": 0
    },
    {
      "name": "emissive texture",
      "sampler": 0,
      "source": 1
    }
  ]
}