{
  "asset": {
    "generator": "ArenaPro Web VCode Exporter",
    "version": "2.0"
  },
  "extensionsUsed": [
    "KHR_materials_unlit"
  ],
  "accessors": [
    {
      "name": "positions_0",
      "componentType": 5126,
      "count": 432,
      "type": "VEC3",
      "bufferView": 0,
      "byteOffset": 0,
      "min": [
        0,
        0,
        0
      ],
      "max": [
        39,
        9,
        2
      ]
    },
    {
      "name": "texcoords_0",
      "componentType": 5126,
      "count": 432,
      "type": "VEC2",
      "bufferView": 1,
      "byteOffset": 0,
      "min": [
        0.8955223880597015,
        0.8805970149253731
      ],
      "max": [
        0.9104477611940298,
        0.8955223880597015
      ]
    },
    {
      "name": "indices_0",
      "componentType": 5123,
      "count": 648,
      "type": "SCALAR",
      "bufferView": 2,
      "byteOffset": 0,
      "min": [
        0
      ],
      "max": [
        431
      ]
    },
    {
      "name": "positions_1",
      "componentType": 5126,
      "count": 432,
      "type": "VEC3",
      "bufferView": 3,
      "byteOffset": 0,
      "min": [
        0,
        0,
        0
      ],
      "max": [
        39,
        9,
        2
      ]
    },
    {
      "name": "texcoords_1",
      "componentType": 5126,
      "count": 432,
      "type": "VEC2",
      "bufferView": 4,
      "byteOffset": 0,
      "min": [
        0.8955223880597015,
        0.8805970149253731
      ],
      "max": [
        0.9104477611940298,
        0.8955223880597015
      ]
    },
    {
      "name": "indices_1",
      "componentType": 5123,
      "count": 648,
      "type": "SCALAR",
      "bufferView": 5,
      "byteOffset": 0,
      "min": [
        0
      ],
      "max": [
        431
      ]
    },
    {
      "name": "positions_2",
      "componentType": 5126,
      "count": 184,
      "type": "VEC3",
      "bufferView": 6,
      "byteOffset": 0,
      "min": [
        0,
        0,
        0
      ],
      "max": [
        65,
        41,
        40
      ]
    },
    {
      "name": "texcoords_2",
      "componentType": 5126,
      "count": 184,
      "type": "VEC2",
      "bufferView": 7,
      "byteOffset": 0,
      "min": [
        0.014925373134328358,
        0.014925373134328358
      ],
      "max": [
        0.9850746268656716,
        0.9850746268656716
      ]
    },
    {
      "name": "indices_2",
      "componentType": 5121,
      "count": 276,
      "type": "SCALAR",
      "bufferView": 8,
      "byteOffset": 0,
      "min": [
        0
      ],
      "max": [
        183
      ]
    }
  ],
  "bufferViews": [
    {
      "name": "bufferView_positions_0",
      "buffer": 0,
      "byteLength": 5184,
      "byteOffset": 0,
      "byteStride": 12,
      "target": 34962
    },
    {
      "name": "bufferView_texcoords_0",
      "buffer": 0,
      "byteLength": 3456,
      "byteOffset": 5184,
      "byteStride": 8,
      "target": 34962
    },
    {
      "name": "bufferView_indices_0",
      "buffer": 0,
      "byteLength": 1296,
      "byteOffset": 8640,
      "target": 34963
    },
    {
      "name": "bufferView_positions_1",
      "buffer": 0,
      "byteLength": 5184,
      "byteOffset": 9936,
      "byteStride": 12,
      "target": 34962
    },
    {
      "name": "bufferView_texcoords_1",
      "buffer": 0,
      "byteLength": 3456,
      "byteOffset": 15120,
      "byteStride": 8,
      "target": 34962
    },
    {
      "name": "bufferView_indices_1",
      "buffer": 0,
      "byteLength": 1296,
      "byteOffset": 18576,
      "target": 34963
    },
    {
      "name": "bufferView_positions_2",
      "buffer": 0,
      "byteLength": 2208,
      "byteOffset": 19872,
      "byteStride": 12,
      "target": 34962
    },
    {
      "name": "bufferView_texcoords_2",
      "buffer": 0,
      "byteLength": 1472,
      "byteOffset": 22080,
      "byteStride": 8,
      "target": 34962
    },
    {
      "name": "bufferView_indices_2",
      "buffer": 0,
      "byteLength": 276,
      "byteOffset": 23552,
      "target": 34963
    },
    {
      "name": "bufferView_image",
      "buffer": 0,
      "byteLength": 1023,
      "byteOffset": 23828
    },
    {
      "name": "bufferView_emissive_image",
      "buffer": 0,
      "byteLength": 431,
      "byteOffset": 24851
    }
  ],
  "buffers": [
    {
      "name": "cizECYC5S5idKsLvAvyrrlQ3V36YDZI_D-mTZIp2CuQ",
      "byteLength": 25284,
      "uri": "data:application/octet-stream;base64,"
    }
  ],
  "images": [
    {
      "name": "image",
      "mimeType": "image/png",
      "bufferView": 9
    },
    {
      "name": "emissive image",
      "mimeType": "image/png",
      "bufferView": 10
    }
  ],
  "materials": [
    {
      "name": "material",
      "pbrMetallicRoughness": {
        "baseColorTexture": {
          "index": 0
        },
        "baseColorFactor": [
          1,
          1,
          1,
          1
        ],
        "metallicFactor": 0,
        "roughnessFactor": 1
      },
      "emissiveTexture": {
        "index": 1
      },
      "emissiveFactor": [
        0,
        0,
        0
      ],
      "alphaMode": "OPAQUE",
      "doubleSided": true,
      "extensions": {
        "KHR_materials_unlit": {}
      }
    }
  ],
  "meshes": [
    {
      "name": "mesh_0",
      "primitives": [
        {
          "attributes": {
            "POSITION": 0,
            "TEXCOORD_0": 1
          },
          "indices": 2,
          "material": 0,
          "mode": 4
        }
      ]
    },
    {
      "name": "mesh_1",
      "primitives": [
        {
          "attributes": {
            "POSITION": 3,
            "TEXCOORD_0": 4
          },
          "indices": 5,
          "material": 0,
          "mode": 4
        }
      ]
    },
    {
      "name": "mesh_2",
      "primitives": [
        {
          "attributes": {
            "POSITION": 6,
            "TEXCOORD_0": 7
          },
          "indices": 8,
          "material": 0,
          "mode": 4
        }
      ]
    }
  ],
  "nodes": [
    {
      "name": "Root",
      "rotation": [
        0,
        0,
        0,
        1
      ],
      "scale": [
        1,
        1,
        1
      ],
      "translation": [
        0,
        0,
        0
      ],
      "children": [
        1,
        2
      ]
    },
    {
      "name": "Root",
      "rotation": [
        0,
        0,
        0,
        1
      ],
      "scale": [
        1,
        1,
        1
      ],
      "translation": [
        0,
        0,
        0
      ]
    },
    {
      "name": "Root",
      "rotation": [
        0,
        0,
        0,
        1
      ],
      "scale": [
        1,
        1,
        1
      ],
      "translation": [
        0,
        0,
        0
      ],
      "children": [
        3,
        4,
        5
      ]
    },
    {
      "name": "Object",
      "mesh": 0,
      "rotation": [
        0,
        0,
        0,
        1
      ],
      "scale": [
        1,
        1,
        1
      ],
      "translation": [
        13,
        2,
        11.667951583862305
      ]
    },
    {
      "name": "Object",
      "mesh": 1,
      "rotation": [
        0,
        0,
        0,
        1
      ],
      "scale": [
        1,
        1,
        1
      ],
      "translation": [
        13,
        2,
        26.284299850463867
      ]
    },
    {
      "name": "Object-1",
      "mesh": 2,
      "rotation": [
        0,
        0,
        0,
        1
      ],
      "scale": [
        1,
        1,
        1
      ],
      "translation": [
        0,
        0,
        0
      ]
    }
  ],
  "samplers": [
    {
      "wrapS": 33071,
      "wrapT": 33071,
      "magFilter": 9728,
      "minFilter": 9728
    }
  ],
  "scene": 0,
  "scenes": [
    {
      "nodes": [
        0
      ]
    }
  ],
  "textures": [
    {
      "name": "texture",
      "sampler": 0,
      "source": 0
    },
    {
      "name": "emissive texture",
      "sampler": 0,
      "source": 1
    }
  ]
}