{
  "asset": {
    "generator": "ArenaPro Web VCode Exporter",
    "version": "2.0"
  },
  "extensionsUsed": [
    "KHR_materials_unlit"
  ],
  "accessors": [
    {
      "name": "positions_0",
      "componentType": 5126,
      "count": 88,
      "type": "VEC3",
      "bufferView": 0,
      "byteOffset": 0,
      "min": [
        0,
        0,
        0
      ],
      "max": [
        17,
        59,
        17
      ]
    },
    {
      "name": "texcoords_0",
      "componentType": 5126,
      "count": 88,
      "type": "VEC2",
      "bufferView": 1,
      "byteOffset": 0,
      "min": [
        0.34177215189873417,
        0.009174311926605505
      ],
      "max": [
        0.8481012658227848,
        0.9541284403669725
      ]
    },
    {
      "name": "indices_0",
      "componentType": 5121,
      "count": 132,
      "type": "SCALAR",
      "bufferView": 2,
      "byteOffset": 0,
      "min": [
        0
      ],
      "max": [
        87
      ]
    },
    {
      "name": "positions_1",
      "componentType": 5126,
      "count": 368,
      "type": "VEC3",
      "bufferView": 3,
      "byteOffset": 0,
      "min": [
        0,
        0,
        0
      ],
      "max": [
        13,
        135,
        11
      ]
    },
    {
      "name": "texcoords_1",
      "componentType": 5126,
      "count": 368,
      "type": "VEC2",
      "bufferView": 4,
      "byteOffset": 0,
      "min": [
        0.34177215189873417,
        0.009174311926605505
      ],
      "max": [
        0.9873417721518988,
        0.9908256880733946
      ]
    },
    {
      "name": "indices_1",
      "componentType": 5123,
      "count": 552,
      "type": "SCALAR",
      "bufferView": 5,
      "byteOffset": 0,
      "min": [
        0
      ],
      "max": [
        367
      ]
    },
    {
      "name": "positions_2",
      "componentType": 5126,
      "count": 40,
      "type": "VEC3",
      "bufferView": 6,
      "byteOffset": 0,
      "min": [
        0,
        0,
        0
      ],
      "max": [
        11,
        16,
        107
      ]
    },
    {
      "name": "texcoords_2",
      "componentType": 5126,
      "count": 40,
      "type": "VEC2",
      "bufferView": 7,
      "byteOffset": 0,
      "min": [
        0.012658227848101266,
        0.009174311926605505
      ],
      "max": [
        0.8481012658227848,
        0.9908256880733946
      ]
    },
    {
      "name": "indices_2",
      "componentType": 5121,
      "count": 60,
      "type": "SCALAR",
      "bufferView": 8,
      "byteOffset": 0,
      "min": [
        0
      ],
      "max": [
        39
      ]
    }
  ],
  "bufferViews": [
    {
      "name": "bufferView_positions_0",
      "buffer": 0,
      "byteLength": 1056,
      "byteOffset": 0,
      "byteStride": 12,
      "target": 34962
    },
    {
      "name": "bufferView_texcoords_0",
      "buffer": 0,
      "byteLength": 704,
      "byteOffset": 1056,
      "byteStride": 8,
      "target": 34962
    },
    {
      "name": "bufferView_indices_0",
      "buffer": 0,
      "byteLength": 132,
      "byteOffset": 1760,
      "target": 34963
    },
    {
      "name": "bufferView_positions_1",
      "buffer": 0,
      "byteLength": 4416,
      "byteOffset": 1892,
      "byteStride": 12,
      "target": 34962
    },
    {
      "name": "bufferView_texcoords_1",
      "buffer": 0,
      "byteLength": 2944,
      "byteOffset": 6308,
      "byteStride": 8,
      "target": 34962
    },
    {
      "name": "bufferView_indices_1",
      "buffer": 0,
      "byteLength": 1104,
      "byteOffset": 9252,
      "target": 34963
    },
    {
      "name": "bufferView_positions_2",
      "buffer": 0,
      "byteLength": 480,
      "byteOffset": 10356,
      "byteStride": 12,
      "target": 34962
    },
    {
      "name": "bufferView_texcoords_2",
      "buffer": 0,
      "byteLength": 320,
      "byteOffset": 10836,
      "byteStride": 8,
      "target": 34962
    },
    {
      "name": "bufferView_indices_2",
      "buffer": 0,
      "byteLength": 60,
      "byteOffset": 11156,
      "target": 34963
    },
    {
      "name": "bufferView_image",
      "buffer": 0,
      "byteLength": 1888,
      "byteOffset": 11216
    },
    {
      "name": "bufferView_emissive_image",
      "buffer": 0,
      "byteLength": 744,
      "byteOffset": 13104
    }
  ],
  "buffers": [
    {
      "name": "CpnLisJRWmAzgb5h_2m5DVlgIf8G_g0qFQS2mrfkz7g",
      "byteLength": 13848,
      "uri": "data:application/octet-stream;base64,"
    }
  ],
  "images": [
    {
      "name": "image",
      "mimeType": "image/png",
      "bufferView": 9
    },
    {
      "name": "emissive image",
      "mimeType": "image/png",
      "bufferView": 10
    }
  ],
  "materials": [
    {
      "name": "material",
      "pbrMetallicRoughness": {
        "baseColorTexture": {
          "index": 0
        },
        "baseColorFactor": [
          1,
          1,
          1,
          1
        ],
        "metallicFactor": 0,
        "roughnessFactor": 1
      },
      "emissiveTexture": {
        "index": 1
      },
      "emissiveFactor": [
        0,
        0,
        0
      ],
      "alphaMode": "OPAQUE",
      "doubleSided": true,
      "extensions": {
        "KHR_materials_unlit": {}
      }
    }
  ],
  "meshes": [
    {
      "name": "mesh_0",
      "primitives": [
        {
          "attributes": {
            "POSITION": 0,
            "TEXCOORD_0": 1
          },
          "indices": 2,
          "material": 0,
          "mode": 4
        }
      ]
    },
    {
      "name": "mesh_1",
      "primitives": [
        {
          "attributes": {
            "POSITION": 3,
            "TEXCOORD_0": 4
          },
          "indices": 5,
          "material": 0,
          "mode": 4
        }
      ]
    },
    {
      "name": "mesh_2",
      "primitives": [
        {
          "attributes": {
            "POSITION": 6,
            "TEXCOORD_0": 7
          },
          "indices": 8,
          "material": 0,
          "mode": 4
        }
      ]
    }
  ],
  "nodes": [
    {
      "name": "Root",
      "rotation": [
        0,
        0,
        0,
        1
      ],
      "scale": [
        1,
        1,
        1
      ],
      "translation": [
        0,
        0,
        0
      ],
      "children": [
        1,
        2
      ]
    },
    {
      "name": "Root",
      "rotation": [
        0,
        0,
        0,
        1
      ],
      "scale": [
        1,
        1,
        1
      ],
      "translation": [
        0,
        0,
        0
      ]
    },
    {
      "name": "Root",
      "rotation": [
        0,
        0,
        0,
        1
      ],
      "scale": [
        1,
        1,
        1
      ],
      "translation": [
        0,
        0,
        0
      ],
      "children": [
        3
      ]
    },
    {
      "name": "Group",
      "rotation": [
        0,
        0,
        0,
        1
      ],
      "scale": [
        1,
        1,
        1
      ],
      "translation": [
        321.5,
        -360,
        -62.00001907348633
      ],
      "children": [
        4,
        5,
        6
      ]
    },
    {
      "name": "Object",
      "mesh": 0,
      "rotation": [
        0,
        0,
        0,
        1
      ],
      "scale": [
        1,
        1,
        1
      ],
      "translation": [
        -165,
        180,
        3.000006675720215
      ]
    },
    {
      "name": "Object-1",
      "mesh": 1,
      "rotation": [
        0,
        0,
        0,
        1
      ],
      "scale": [
        1,
        1,
        1
      ],
      "translation": [
        -163,
        238,
        6.0000104904174805
      ]
    },
    {
      "name": "Object-2",
      "mesh": 2,
      "rotation": [
        0,
        0,
        0,
        1
      ],
      "scale": [
        1,
        1,
        1
      ],
      "translation": [
        -162,
        373,
        8.000011444091797
      ]
    }
  ],
  "samplers": [
    {
      "wrapS": 33071,
      "wrapT": 33071,
      "magFilter": 9728,
      "minFilter": 9728
    }
  ],
  "scene": 0,
  "scenes": [
    {
      "nodes": [
        0
      ]
    }
  ],
  "textures": [
    {
      "name": "texture",
      "sampler": 0,
      "source": 0
    },
    {
      "name": "emissive texture",
      "sampler": 0,
      "source": 1
    }
  ]
}